<?xml version="1.0" standalone="no"?>
<!DOCTYPE svg PUBLIC "-//W3C//DTD SVG 20010904//EN"
 "http://www.w3.org/TR/2001/REC-SVG-20010904/DTD/svg10.dtd">
<svg version="1.0" xmlns="http://www.w3.org/2000/svg"
 width="256.000000pt" height="256.000000pt" viewBox="0 0 256.000000 256.000000"
 preserveAspectRatio="xMidYMid meet">

<g transform="translate(0.000000,256.000000) scale(0.100000,-0.100000)"
fill="#000000" stroke="none">
<path d="M2185 2402 c-83 -29 -146 -71 -225 -151 -92 -94 -156 -199 -226 -373
-50 -127 -140 -420 -180 -590 l-18 -78 -164 0 c-151 0 -163 1 -158 18 39 133
206 818 206 845 0 40 -18 63 -67 83 -42 18 -137 18 -151 1 -6 -7 -34 -109 -63
-226 l-51 -212 -159 -262 c-88 -144 -163 -265 -167 -268 -4 -4 -97 -15 -206
-24 -109 -8 -203 -18 -207 -21 -5 -3 -9 -14 -9 -24 0 -64 42 -83 198 -88 67
-2 122 -6 122 -7 0 -4 -217 -346 -320 -505 -48 -74 -91 -145 -94 -157 -9 -27
22 -46 59 -37 44 11 255 288 426 561 l87 138 97 8 c53 5 98 7 100 5 2 -2 -10
-62 -26 -133 -50 -223 -69 -345 -76 -480 -7 -154 4 -204 52 -252 59 -59 135
-38 135 39 0 24 -8 42 -26 59 -14 13 -34 38 -45 56 l-20 32 30 148 c32 154
125 540 132 548 7 6 318 30 323 24 3 -2 -32 -148 -76 -323 -60 -234 -79 -323
-71 -334 15 -24 44 -28 147 -21 50 4 201 12 336 19 406 18 402 18 380 69 -7
18 -21 36 -31 41 -10 6 -151 10 -334 10 -297 0 -316 1 -311 18 3 9 75 298 160
642 100 404 167 657 191 715 99 246 216 385 368 440 70 26 85 49 36 59 -43 8
-47 8 -104 -12z m-1098 -1091 c-13 -56 -26 -103 -28 -105 -2 -2 -35 -7 -72
-11 l-69 -8 17 34 c46 89 152 216 167 201 5 -5 -2 -52 -15 -111z"/>
</g>
</svg>
